<?xml version="1.0" encoding="iso-8859-1"?>
<!-- Uploaded to: SVG Repo, www.svgrepo.com, Generator: SVG Repo Mixer Tools -->
<!DOCTYPE svg PUBLIC "-//W3C//DTD SVG 1.1//EN" "http://www.w3.org/Graphics/SVG/1.1/DTD/svg11.dtd">
<svg fill="currentColor" version="1.1" id="Capa_1" xmlns="http://www.w3.org/2000/svg" xmlns:xlink="http://www.w3.org/1999/xlink" 
	 width="800px" height="800px" viewBox="0 0 108.364 108.364"
	 xml:space="preserve">
<g>
	<g>
		<path d="M38.637,68.95h9.785v-6.3c-3.615,0.765-6.95,2.238-9.785,4.283V68.95z"/>
		<path d="M51.979,62.141v6.81h9.785v-5.881c-2.398-0.664-4.949-1.022-7.584-1.022C53.439,62.045,52.707,62.084,51.979,62.141z"/>
		<polygon points="51.979,77.174 61.766,77.184 61.766,72.25 51.979,72.25 		"/>
		<polygon points="65.323,77.189 75.107,77.2 75.107,72.25 65.323,72.25 		"/>
		<path d="M54.182,0C24.258,0,0,24.258,0,54.182c0,29.924,24.258,54.183,54.182,54.183c29.923,0,54.182-24.259,54.182-54.183
			C108.364,24.258,84.105,0,54.182,0z M61.883,31.366c3.422,0,6.198,2.777,6.198,6.201c0,3.426-2.776,6.203-6.198,6.203
			c-3.425,0-6.201-2.777-6.201-6.203C55.682,34.143,58.458,31.366,61.883,31.366z M45.85,31.366c3.422,0,6.199,2.777,6.199,6.201
			c0,3.426-2.777,6.203-6.199,6.203c-3.424,0-6.201-2.777-6.201-6.203C39.649,34.143,42.427,31.366,45.85,31.366z M79.693,79.196
			c-0.266,0.454-0.713,0.729-1.191,0.729H78.5l-48.638-0.07c-0.482,0-0.932-0.278-1.197-0.739s-0.309-1.043-0.117-1.55
			C32.831,66.247,42.866,58.93,54.111,58.93c11.486,0,21.58,7.353,25.715,18.728C80.01,78.162,79.961,78.741,79.693,79.196z"/>
		<polygon points="38.637,77.159 48.422,77.17 48.422,72.25 38.637,72.25 		"/>
		<path d="M65.323,64.334v4.615h7.013C70.34,67.047,67.963,65.489,65.323,64.334z"/>
		<path d="M31.439,75.498c-0.17,0.365-0.131,0.787,0.104,1.119c0.237,0.334,0.636,0.533,1.065,0.535l2.469,0.002V72.25h-1.738
			C32.617,73.273,31.973,74.355,31.439,75.498z"/>
	</g>
</g>
</svg>